<svg width="789.99" height="731" xmlns="http://www.w3.org/2000/svg" xmlns:xlink="http://www.w3.org/1999/xlink">
 <defs>
  <linearGradient y2="-0.017358" x2="0.891469" y1="1.017322" x1="0.108558" id="e8bc579c-b689-4b79-8d3e-12ed6a496947">
   <stop stop-opacity="0.25" stop-color="gray" offset="0"/>
   <stop stop-opacity="0.12" stop-color="gray" offset="0.54"/>
   <stop stop-opacity="0.1" stop-color="gray" offset="1"/>
  </linearGradient>
  <linearGradient xlink:href="#e8bc579c-b689-4b79-8d3e-12ed6a496947" gradientTransform="matrix(1, 0, 0, 1, 0, 0)" y2="490.28" x2="533.21" y1="688.58" x1="533.21" id="cfdf7721-0c02-41fc-8db3-2f80d97037f4"/>
  <linearGradient xlink:href="#e8bc579c-b689-4b79-8d3e-12ed6a496947" gradientTransform="matrix(-1, 0, 0, 1, 48, 0)" y2="229.5" x2="-602.79" y1="427.8" x1="-602.79" id="c1b02b18-c4d9-4578-b739-51fef2fdc4ab"/>
  <linearGradient xlink:href="#e8bc579c-b689-4b79-8d3e-12ed6a496947" gradientTransform="matrix(1, 0, 0, 1, 0, 0)" y2="242.61" x2="376.5" y1="427.5" x1="376.5" id="0b093351-16bd-4346-89bf-f32fc0d63148"/>
  <linearGradient xlink:href="#e8bc579c-b689-4b79-8d3e-12ed6a496947" gradientTransform="matrix(-1, 0, 0, 1, 4122, 0)" y2="517.61" x2="3313.5" y1="702.5" x1="3313.5" id="81bfca67-d9d1-4d9e-a40d-a000f0d65a64"/>
 </defs>
 <title>chating</title>
 <g>
  <title>background</title>
  <rect fill="none" id="canvas_background" height="402" width="582" y="-1" x="-1"/>
 </g>
 <g>
  <title>Layer 1</title>
  <g id="svg_1" opacity="0.5">
   <path id="svg_2" fill="url(#e8bc579c-b689-4b79-8d3e-12ed6a496947)" d="m551.67,43.99l-332.5,0.81a13.66,13.66 0 0 0 -13.63,13.7l1.51,621.89a13.66,13.66 0 0 0 13.7,13.63l332.5,-0.81a13.66,13.66 0 0 0 13.63,-13.71l-1.51,-621.89a13.66,13.66 0 0 0 -13.7,-13.62z"/>
  </g>
  <rect id="svg_3" fill="#fff" transform="rotate(-0.14000000059604645 -206.11000061035188,-83.05999755858902) " ry="13.64" rx="13.64" height="631.95" width="350.11" y="54.320002" x="210.049999"/>
  <path opacity="0.4" fill="#f0b873" d="m473.43,68.5a28.38,28.38 0 0 1 -27.91,24.21l-120.93,0.29a28.38,28.38 0 0 1 -28,-24.07l-64.05,0.16a13.3,13.3 0 0 0 -13.27,13.33l1.39,573.67a13.3,13.3 0 0 0 13.34,13.27l306,-0.74a13.3,13.3 0 0 0 13.27,-13.33l-1.39,-573.67a13.3,13.3 0 0 0 -13.33,-13.27l-65.12,0.15z" id="869b38ff-715e-463a-98e7-ca2bce61d391"/>
  <rect id="svg_4" fill="#dbdbdb" transform="rotate(-0.8600000143051147 -207.38999938964767,-75.65000152587882) " ry="2" rx="2" height="4.88" width="78.02" y="85.159998" x="340.940001"/>
  <circle id="svg_5" fill="#dbdbdb" transform="rotate(-0.8600000143051147 -207.3699951171859,-74.81999969482476) " r="2.93" cy="87.1" cx="435.540005"/>
  <g id="svg_6" opacity="0.5">
   <path id="svg_7" fill="url(#cfdf7721-0c02-41fc-8db3-2f80d97037f4)" d="m427.07,504.63a98.85,98.85 0 1 0 -154,82l0.06,0.44a33.84,33.84 0 0 0 11.21,7.13l0.13,-0.44c4.63,4 24.12,10.33 46.51,10.27l0.49,0c14.18,0 29.58,-2.5 43.12,-9.83c0,0 0.12,-0.26 0.3,-0.75a35.21,35.21 0 0 0 9.32,-6.38q0.08,-0.57 0.16,-1.12a98.74,98.74 0 0 0 42.7,-81.32z"/>
  </g>
  <circle id="svg_8" fill="#f5f5f5" r="95.89" cy="504.64" cx="328.21"/>
  <path id="svg_9" fill="#fda57d" d="m291.58,544.07s-22.85,1.87 -16.8,43.49a32.82,32.82 0 0 0 10.87,6.94l12.85,-43.49l-6.92,-6.94z"/>
  <path id="svg_10" fill="#fda57d" d="m365.72,544.07s22.85,1.87 16.8,43.49a32.82,32.82 0 0 1 -10.87,6.94l-12.85,-43.51l6.92,-6.92z"/>
  <path id="svg_11" fill="#333" d="m292.57,475.86s-10.87,31.64 -16.8,28.64c0,0 57.22,49.43 107.75,0c0,0 -8.9,-15.82 -21.75,-28.67l-69.2,0.03z"/>
  <circle id="svg_12" fill="#333" r="42.51" cy="472.89" cx="329.25"/>
  <path id="svg_13" opacity="0.1" d="m365.28,544.07l-74.13,0l-6.92,29.66s-4.06,13.73 1,19.77s52.28,19.77 87,1a38.68,38.68 0 0 0 1,-24.71c-4,-13.84 -1,-1 -1,-1l-6.95,-24.72z"/>
  <path id="svg_14" opacity="0.1" d="m366.27,544.07l-74.14,0l-6.92,29.66s-4.06,13.73 1,19.77s52.28,19.77 87,1a38.68,38.68 0 0 0 1,-24.71c-4,-13.84 -1,-1 -1,-1l-6.94,-24.72z"/>
  <path id="svg_15" fill="#f0b873" d="m365.72,544.07l-74.14,0l-6.92,29.66s-4.06,13.73 1,19.77s52.28,19.77 87,1a38.68,38.68 0 0 0 1,-24.71c-4,-13.84 -1,-1 -1,-1l-6.94,-24.72z"/>
  <path id="svg_16" opacity="0.1" d="m314.32,519.46l29.68,0a0,0 0 0 1 0,0l0,28.7a9.85,9.85 0 0 1 -9.85,9.85l-10,0a9.85,9.85 0 0 1 -9.85,-9.85l0,-28.7a0,0 0 0 1 0.02,0z"/>
  <path id="svg_17" fill="#fda57d" d="m314.32,518.37l29.68,0a0,0 0 0 1 0,0l0,28.7a9.85,9.85 0 0 1 -9.85,9.85l-10,0a9.85,9.85 0 0 1 -9.85,-9.85l0,-28.7a0,0 0 0 1 0.02,0z"/>
  <path id="svg_18" opacity="0.1" d="m314.38,522.64a42.68,42.68 0 0 0 29.66,0.08l0,-3.64l-29.66,0l0,3.56z"/>
  <circle id="svg_19" fill="#fda57d" r="42.51" cy="482.12" cx="329.25"/>
  <path id="svg_20" fill="#333" d="m288.62,465.97l81.06,0s-6.92,-32.73 -37.56,-30.64s-43.5,30.64 -43.5,30.64z"/>
  <ellipse id="svg_21" fill="#fda57d" ry="7.41" rx="3.95" cy="480.31" cx="287.63"/>
  <ellipse id="svg_22" fill="#fda57d" ry="7.41" rx="3.95" cy="480.31" cx="370.66"/>
  <path id="svg_23" opacity="0.1" d="m288.62,467.07l81.06,0s-6.92,-32.73 -37.56,-30.64s-43.5,30.64 -43.5,30.64z"/>
  <g id="svg_24" opacity="0.5">
   <path id="svg_25" fill="url(#c1b02b18-c4d9-4578-b739-51fef2fdc4ab)" d="m346.94,243.85a98.85,98.85 0 1 1 154,82l-0.06,0.44a33.84,33.84 0 0 1 -11.21,7.21l-0.13,-0.44c-4.63,4 -24.12,10.33 -46.51,10.27l-0.49,0c-14.18,0 -29.58,-2.5 -43.12,-9.83c0,0 -0.12,-0.26 -0.3,-0.75a35.21,35.21 0 0 1 -9.32,-6.38q-0.08,-0.57 -0.16,-1.12a98.74,98.74 0 0 1 -42.7,-81.4z"/>
  </g>
  <circle id="svg_26" fill="#f5f5f5" r="95.89" cy="243.86" cx="445.79"/>
  <path id="svg_27" fill="#be7c5e" d="m408.2,280.38s-22.85,1.87 -16.8,43.49a32.82,32.82 0 0 0 10.87,6.92l12.85,-43.49l-6.92,-6.92z"/>
  <path id="svg_28" fill="#be7c5e" d="m482.33,280.38s22.85,1.87 16.8,43.49a32.82,32.82 0 0 1 -10.87,6.92l-12.85,-43.49l6.92,-6.92z"/>
  <path id="svg_29" fill="#333" d="m409.18,212.17s-1.76,5.12 -4.25,11c-5.44,13 0.77,62.71 13.78,68c14.6,6 33.8,9.76 53.75,2.49c17.33,-6.32 22.68,-63 10.42,-76.75c-1.44,-1.62 -2.94,-3.23 -4.51,-4.79l-69.19,0.05z"/>
  <circle id="svg_30" fill="#333" r="42.51" cy="209.21" cx="445.86"/>
  <path id="svg_31" opacity="0.1" d="m481.9,280.38l-74.14,0l-6.92,29.66s-4.06,13.73 1,19.77s52.28,19.77 87,1a38.68,38.68 0 0 0 1,-24.71c-4,-13.84 -1,-1 -1,-1l-6.94,-24.72z"/>
  <path id="svg_32" opacity="0.1" d="m482.88,280.38l-74.14,0l-6.92,29.66s-4.06,13.73 1,19.77s52.28,19.77 87,1a38.68,38.68 0 0 0 1,-24.71c-4,-13.84 -1,-1 -1,-1l-6.94,-24.72z"/>
  <path id="svg_33" fill="#f55f44" d="m482.33,280.38l-74.13,0l-6.92,29.66s-4.06,13.73 1,19.77s52.28,19.77 87,1a38.68,38.68 0 0 0 1,-24.71c-4,-13.84 -1,-1 -1,-1l-6.95,-24.72z"/>
  <path id="svg_34" opacity="0.1" d="m430.93,255.78l29.66,0a0,0 0 0 1 0,0l0,28.7a9.85,9.85 0 0 1 -9.85,9.85l-10,0a9.85,9.85 0 0 1 -9.85,-9.85l0,-28.7a0,0 0 0 1 0,0l0.04,0z"/>
  <path id="svg_35" fill="#be7c5e" d="m430.93,254.68l29.66,0a0,0 0 0 1 0,0l0,28.7a9.85,9.85 0 0 1 -9.85,9.85l-10,0a9.85,9.85 0 0 1 -9.85,-9.85l0,-28.7a0,0 0 0 1 0.04,0z"/>
  <path id="svg_36" opacity="0.1" d="m431,258.95a42.68,42.68 0 0 0 29.66,0.08l0,-3.64l-29.66,0l0,3.56z"/>
  <circle id="svg_37" fill="#be7c5e" r="42.51" cy="218.43" cx="445.86"/>
  <path id="svg_38" fill="#333" d="m405.23,202.29l81.06,0s-6.92,-32.73 -37.56,-30.64s-43.5,30.64 -43.5,30.64z"/>
  <ellipse id="svg_39" fill="#be7c5e" ry="7.41" rx="3.95" cy="216.62" cx="404.24"/>
  <ellipse id="svg_40" fill="#be7c5e" ry="7.41" rx="3.95" cy="216.62" cx="487.27"/>
  <path id="svg_41" opacity="0.1" d="m405.23,203.39l81.06,0s-6.92,-32.73 -37.56,-30.64s-43.5,30.64 -43.5,30.64z"/>
  <g id="svg_42" opacity="0.5">
   <path id="svg_43" fill="url(#0b093351-16bd-4346-89bf-f32fc0d63148)" d="m5,158.11l0,142.72l224.86,0s16.6,32.67 45.14,42.17c0,0 -9.11,-23.14 0.4,-42.17l62.6,0l0,-142.72l-333,0z"/>
  </g>
  <path id="svg_44" fill="#fff" d="m14,163l0,135l225,0s0,27 27,36c0,0 -9,-18 0,-36l63,0l0,-135l-315,0z"/>
  <rect id="svg_45" fill="#f0b873" height="18" width="180" y="190" x="41"/>
  <rect id="svg_46" fill="#f0b873" height="18" width="243" y="217" x="41"/>
  <rect id="svg_47" fill="#f0b873" height="18" width="216" y="244" x="41"/>
  <g id="svg_48" opacity="0.5">
   <path id="svg_49" fill="url(#81bfca67-d9d1-4d9e-a40d-a000f0d65a64)" d="m770,433.11l0,142.72l-224.85,0s-16.6,32.67 -45.15,42.17c0,0 9.11,-23.14 -0.4,-42.17l-62.6,0l0,-142.72l333,0z"/>
  </g>
  <path id="svg_50" fill="#fff" d="m761,438l0,135l-225,0s0,27 -27,36c0,0 9,-18 0,-36l-63,0l0,-135l315,0z"/>
  <rect id="svg_51" fill="#f0b873" height="18" width="180" y="465" x="483"/>
  <rect id="svg_52" fill="#f0b873" height="18" width="243" y="492" x="483"/>
  <rect id="svg_53" fill="#f0b873" height="18" width="216" y="519" x="483"/>
 </g>
</svg>